<svg xmlns="http://www.w3.org/2000/svg" xmlns:v="https://svgstorm.com"
viewBox = "0 0 1024 1024"
width="1024"
height="1024">
<g fill="None" fill-opacity="0.0" stroke="#000000" stroke-opacity="0.00" stroke-width="0.3"><path d="
M 0.00 1024.00 
L 1024.00 1024.00
L 1024.00 0.00
L 0.00 0.00
L 0.00 1024.00
M 527.00 78.00 
C 541.66 78.00 555.78 79.10 570.00 81.00
C 579.95 82.33 590.13 83.99 600.00 86.00
C 602.63 86.53 605.33 87.41 608.00 88.00
C 695.51 107.39 769.89 152.18 832.25 220.75 C 894.61 289.32 931.40 379.32 940.00 471.00
C 940.57 472.93 943.74 473.26 943.00 480.00 C 942.26 486.74 943.30 484.14 943.78 492.22 C 944.26 500.31 944.20 512.15 943.01 520.01 C 941.82 527.87 942.38 527.08 941.00 533.00
C 938.44 660.92 862.71 788.56 756.00 861.00
C 755.54 861.65 756.30 862.71 754.30 864.30 C 752.29 865.89 750.65 864.09 751.00 864.00
C 735.28 874.89 721.10 882.23 703.97 890.97 C 686.84 899.72 670.30 907.06 651.32 913.32 C 632.35 919.59 613.74 925.06 592.98 928.98 C 572.21 932.90 547.40 935.34 525.00 936.00 C 502.60 936.66 474.92 935.19 453.78 932.22 C 432.63 929.25 412.10 925.01 392.78 919.22 C 373.45 913.44 355.24 907.42 337.77 899.23 C 320.30 891.03 304.03 883.59 288.30 873.70 C 272.58 863.80 259.15 854.32 244.77 843.23 C 230.39 832.14 218.25 820.72 205.25 807.75 C 192.25 794.79 181.84 782.70 170.75 768.25 C 159.65 753.80 149.68 739.90 140.23 723.77 C 130.78 707.64 123.02 691.62 115.23 673.77 C 107.44 655.92 102.55 638.04 96.67 618.33 C 90.80 598.62 88.83 576.45 85.00 555.00 C 81.17 533.55 84.38 506.09 83.00 484.00
C 82.76 484.53 81.67 485.72 81.00 486.00
C 81.96 483.04 80.49 475.17 83.00 476.00
C 83.16 474.34 83.83 471.27 84.00 469.00
C 85.72 446.47 89.23 423.59 95.00 402.00
C 94.80 400.02 92.75 399.96 93.78 396.78 C 94.81 393.60 96.98 394.54 98.00 393.00
C 144.50 223.90 296.11 92.96 472.00 79.00
C 484.50 78.01 497.50 77.25 510.00 77.00
C 515.73 76.89 522.03 77.52 527.00 78.00 Z"/>
</g>
<g fill="None" fill-opacity="0.0" stroke="#F1F1F1" stroke-opacity="0.66" stroke-width="0.3"><path d="
M 472.00 79.00 
C 503.78 79.56 538.94 81.27 570.00 81.00
C 555.78 79.10 541.66 78.00 527.00 78.00
C 521.31 78.00 514.93 77.38 510.00 77.00
C 497.50 77.25 484.50 78.01 472.00 79.00 Z"/>
</g>
<g fill="None" fill-opacity="0.0" stroke="#6B6B6B" stroke-opacity="0.03" stroke-width="0.3"><path d="
M 527.00 78.00 
C 522.03 77.52 515.73 76.89 510.00 77.00
C 514.93 77.38 521.31 78.00 527.00 78.00 Z"/>
</g>
<g fill="None" fill-opacity="0.0" stroke="#FCFCFC" stroke-opacity="0.99" stroke-width="0.3"><path d="
M 98.00 393.00 
C 97.17 396.03 95.81 398.96 95.00 402.00
C 89.23 423.59 85.72 446.47 84.00 469.00
C 84.19 473.35 86.67 478.13 83.00 482.00
C 83.00 482.50 82.97 483.50 83.00 484.00
C 84.38 506.09 81.17 533.55 85.00 555.00 C 88.83 576.45 90.80 598.62 96.67 618.33 C 102.55 638.04 107.44 655.92 115.23 673.77 C 123.02 691.62 130.78 707.64 140.23 723.77 C 149.68 739.90 159.65 753.80 170.75 768.25 C 181.84 782.70 192.25 794.79 205.25 807.75 C 218.25 820.72 230.39 832.14 244.77 843.23 C 259.15 854.32 272.58 863.80 288.30 873.70 C 304.03 883.59 320.30 891.03 337.77 899.23 C 355.24 907.42 373.45 913.44 392.78 919.22 C 412.10 925.01 432.63 929.25 453.78 932.22 C 474.92 935.19 502.60 936.66 525.00 936.00 C 547.40 935.34 572.21 932.90 592.98 928.98 C 613.74 925.06 632.35 919.59 651.32 913.32 C 670.30 907.06 686.84 899.72 703.97 890.97 C 721.10 882.23 735.28 874.89 751.00 864.00
C 752.45 862.99 754.60 861.95 756.00 861.00
C 862.71 788.56 938.44 660.92 941.00 533.00
C 941.42 512.27 941.92 491.47 940.00 471.00
C 931.40 379.32 894.61 289.32 832.25 220.75 C 769.89 152.18 695.51 107.39 608.00 88.00
C 606.48 87.90 605.10 88.52 602.78 88.22 C 600.45 87.92 599.73 85.88 600.00 86.00
C 590.13 83.99 579.95 82.33 570.00 81.00
C 538.94 81.27 503.78 79.56 472.00 79.00
C 296.11 92.96 144.50 223.90 98.00 393.00
M 788.00 216.00 
C 792.63 219.96 797.09 224.42 801.00 229.00
C 826.40 258.73 846.40 281.40 864.77 316.23 C 883.14 351.06 896.89 388.17 904.99 428.01 C 913.09 467.85 915.86 526.29 909.00 567.00 C 902.14 607.71 890.74 647.61 873.08 683.08 C 855.41 718.54 837.98 743.90 812.25 773.25 C 786.51 802.60 762.50 822.01 730.30 843.30 C 698.11 864.59 665.18 878.93 626.98 890.98 C 588.77 903.02 534.78 909.84 492.78 907.22 C 450.78 904.61 404.91 896.12 367.93 881.07 C 330.94 866.03 301.17 849.95 270.30 826.70 C 239.44 803.45 218.54 781.91 194.25 751.75 C 169.95 721.60 154.41 691.79 139.02 654.98 C 123.64 618.16 114.56 573.07 112.00 531.00 C 109.44 488.93 114.93 434.22 126.78 395.78 C 138.63 357.34 152.80 324.30 173.75 291.75 C 194.71 259.21 214.08 235.26 243.25 209.25 C 272.41 183.23 297.27 165.24 332.70 147.69 C 368.12 130.15 407.52 118.00 448.07 111.07 C 488.63 104.14 546.88 105.16 587.00 113.00 C 627.12 120.84 664.49 134.37 699.70 152.31 C 734.90 170.24 758.19 190.53 788.00 216.00 Z"/>
</g>
<g fill="None" fill-opacity="0.0" stroke="#E5E5E4" stroke-opacity="0.81" stroke-width="0.3"><path d="
M 608.00 88.00 
C 605.33 87.41 602.63 86.53 600.00 86.00
C 599.73 85.88 600.45 87.92 602.78 88.22 C 605.10 88.52 606.48 87.90 608.00 88.00 Z"/>
</g>
<g fill="None" fill-opacity="0.0" stroke="#0E0E0E" stroke-opacity="1.00" stroke-width="0.3"><path d="
M 801.00 229.00 
C 796.75 224.75 792.20 220.20 788.00 216.00
C 758.19 190.53 734.90 170.24 699.70 152.31 C 664.49 134.37 627.12 120.84 587.00 113.00 C 546.88 105.16 488.63 104.14 448.07 111.07 C 407.52 118.00 368.12 130.15 332.70 147.69 C 297.27 165.24 272.41 183.23 243.25 209.25 C 214.08 235.26 194.71 259.21 173.75 291.75 C 152.80 324.30 138.63 357.34 126.78 395.78 C 114.93 434.22 109.44 488.93 112.00 531.00 C 114.56 573.07 123.64 618.16 139.02 654.98 C 154.41 691.79 169.95 721.60 194.25 751.75 C 218.54 781.91 239.44 803.45 270.30 826.70 C 301.17 849.95 330.94 866.03 367.93 881.07 C 404.91 896.12 450.78 904.61 492.78 907.22 C 534.78 909.84 588.77 903.02 626.98 890.98 C 665.18 878.93 698.11 864.59 730.30 843.30 C 762.50 822.01 786.51 802.60 812.25 773.25 C 837.98 743.90 855.41 718.54 873.08 683.08 C 890.74 647.61 902.14 607.71 909.00 567.00 C 915.86 526.29 913.09 467.85 904.99 428.01 C 896.89 388.17 883.14 351.06 864.77 316.23 C 846.40 281.40 826.40 258.73 801.00 229.00
M 571.00 274.00 
C 566.32 304.70 553.31 329.23 533.00 353.00
C 526.60 360.49 518.60 366.86 512.00 374.00
C 506.23 381.30 501.50 388.79 500.00 398.00
C 499.81 399.14 499.15 400.33 499.00 401.00
C 498.54 403.11 498.65 406.87 499.00 409.00
C 500.75 419.79 509.58 432.28 518.25 439.75 C 526.92 447.23 536.44 456.98 547.00 461.00
C 568.62 469.24 589.91 488.56 610.75 503.25 C 631.60 517.94 650.95 545.82 652.00 570.00
C 659.01 607.01 648.80 644.68 628.00 675.00
C 626.50 677.18 625.61 679.94 624.00 682.00
C 621.04 689.83 608.32 700.48 600.25 708.25 C 592.18 716.01 580.36 723.45 569.77 730.77 C 559.18 738.09 547.62 744.88 536.97 751.97 C 526.33 759.07 515.73 767.52 506.00 776.00
C 501.20 781.62 497.56 787.94 494.00 794.00
C 491.51 788.27 488.69 782.54 489.00 776.00
C 488.83 775.26 488.11 774.26 488.00 773.00
C 486.63 757.05 489.40 741.80 496.00 728.00
C 501.25 706.11 522.68 690.56 536.25 670.25 C 549.81 649.94 557.53 617.65 547.22 593.78 C 536.91 569.90 519.61 558.35 498.77 545.23 C 477.93 532.11 458.58 522.89 438.92 508.08 C 419.26 493.27 398.09 477.83 392.00 454.00
C 390.28 447.28 387.52 440.86 386.00 434.00
C 384.77 428.45 384.00 422.91 384.00 417.00
C 383.57 412.60 383.58 407.34 384.00 403.00
C 384.00 401.00 384.00 399.00 384.00 397.00
C 384.00 396.50 383.85 395.45 384.00 395.00
C 387.81 383.96 388.95 372.79 394.00 362.00
C 396.28 352.68 403.37 341.56 409.77 332.77 C 416.17 323.98 425.16 315.02 431.92 306.92 C 438.68 298.82 449.49 290.46 455.75 282.75 C 462.01 275.04 473.48 268.84 476.00 259.00
C 485.26 254.18 487.87 245.62 493.24 239.23 C 498.60 232.84 504.32 219.96 507.93 211.93 C 511.53 203.89 514.01 188.87 516.00 182.00
C 516.18 180.71 517.11 178.96 517.00 177.00
C 516.69 171.52 513.25 148.22 521.75 154.25 C 530.24 160.29 533.05 165.27 539.25 171.75 C 545.46 178.22 548.92 183.50 553.92 191.08 C 558.92 198.66 561.89 206.09 565.32 214.68 C 568.76 223.26 570.70 232.12 572.00 242.00 C 573.30 251.88 573.52 264.71 571.00 274.00
M 589.00 451.00 
C 573.41 438.05 570.11 414.88 576.98 396.98 C 583.84 379.07 597.34 365.23 600.00 346.00
C 609.95 359.76 610.42 383.49 604.07 400.07 C 597.73 416.66 586.34 431.74 589.00 451.00
M 249.00 581.00 
C 248.57 576.60 248.58 571.34 249.00 567.00
C 249.00 505.95 278.23 441.37 332.00 409.00
C 324.91 432.88 325.95 465.68 330.78 489.22 C 335.61 512.76 347.94 528.90 364.75 545.25 C 381.56 561.59 395.36 571.33 410.25 589.75 C 425.14 608.18 436.01 626.17 439.00 651.00 C 441.99 675.83 432.21 705.81 431.00 731.00
C 412.32 709.76 390.03 690.12 374.00 667.00
C 373.15 680.98 378.34 698.66 384.31 711.69 C 390.27 724.73 398.18 734.83 407.30 745.70 C 416.43 756.56 427.39 764.50 438.08 772.92 C 448.77 781.34 460.96 789.30 473.03 794.97 C 485.09 800.64 502.26 811.89 510.75 798.75 C 519.25 785.61 530.26 781.44 541.08 772.08 C 551.90 762.72 564.53 757.88 576.08 750.08 C 587.62 742.27 598.96 734.40 610.08 726.08 C 621.20 717.76 630.06 709.29 640.25 699.25 C 650.44 689.21 658.83 679.79 666.92 667.92 C 675.01 656.05 681.39 645.09 686.92 630.92 C 692.45 616.76 695.00 598.45 695.00 582.00 C 695.00 565.55 692.01 546.99 687.22 531.78 C 682.43 516.57 678.57 502.63 674.67 487.33 C 670.78 472.03 668.57 450.59 671.00 435.00 C 673.43 419.41 678.13 406.07 686.77 393.77 C 695.41 381.47 706.11 373.71 719.00 368.00
C 709.27 414.08 736.96 450.42 756.77 489.23 C 776.58 528.04 780.66 585.00 770.02 627.02 C 759.39 669.05 743.54 704.07 716.08 737.08 C 688.62 770.09 662.39 789.79 624.77 808.77 C 587.15 827.75 531.44 837.50 488.00 833.00 C 444.56 828.50 402.54 813.48 367.25 789.75 C 331.97 766.01 309.51 742.69 287.08 706.92 C 264.64 671.16 248.51 624.82 249.00 581.00 Z"/>
</g>
<g fill="None" fill-opacity="0.0" stroke="#140508" stroke-opacity="1.00" stroke-width="0.3"><path d="
M 517.00 177.00 
C 516.23 169.07 517.58 160.94 517.00 153.00
C 543.29 171.52 561.98 200.42 569.00 231.00
C 571.89 244.70 573.16 259.84 571.00 274.00
C 573.52 264.71 573.30 251.88 572.00 242.00 C 570.70 232.12 568.76 223.26 565.32 214.68 C 561.89 206.09 558.92 198.66 553.92 191.08 C 548.92 183.50 545.46 178.22 539.25 171.75 C 533.05 165.27 530.24 160.29 521.75 154.25 C 513.25 148.22 516.69 171.52 517.00 177.00 Z"/>
</g>
<g fill="None" fill-opacity="0.0" stroke="#0064E7" stroke-opacity="1.00" stroke-width="0.3"><path d="
M 517.00 177.00 
C 517.62 183.39 517.47 191.63 515.07 198.07 C 512.68 204.51 512.19 211.10 509.07 217.07 C 505.96 223.05 503.63 228.46 500.08 234.08 C 496.52 239.69 493.83 243.13 489.75 248.75 C 485.66 254.36 484.06 256.77 478.75 262.75 C 473.43 268.73 473.43 268.96 466.25 276.25 C 459.07 283.53 448.42 293.96 441.25 301.25 C 434.08 308.53 433.57 308.34 428.25 314.25 C 422.92 320.16 421.51 322.68 416.75 327.75 C 412.00 332.82 410.39 337.25 406.23 342.23 C 402.07 347.21 400.57 353.99 397.08 359.08 C 393.58 364.16 392.41 372.21 390.02 377.02 C 387.64 381.84 387.24 395.00 384.00 395.00
C 383.85 395.45 384.00 396.50 384.00 397.00
C 387.99 406.39 385.40 424.55 386.00 434.00
C 387.52 440.86 390.28 447.28 392.00 454.00
C 400.39 472.78 415.58 488.29 432.00 501.00
C 440.40 505.14 450.09 512.17 459.23 517.77 C 468.37 523.37 478.86 530.56 488.08 535.92 C 497.30 541.28 508.13 547.44 516.25 553.75 C 524.37 560.06 535.83 567.43 540.75 576.25 C 545.67 585.07 557.34 599.49 553.00 609.00
C 553.06 609.49 552.85 610.55 553.00 611.00
C 559.75 616.41 553.61 635.70 552.02 644.02 C 550.44 652.35 544.02 662.72 539.25 670.25 C 534.47 677.78 528.58 684.50 522.75 691.75 C 516.92 699.00 511.29 706.06 506.08 714.08 C 500.87 722.10 496.00 729.43 493.07 739.07 C 490.15 748.72 488.52 762.93 488.00 773.00
C 488.11 774.26 488.83 775.26 489.00 776.00
C 488.87 775.87 492.51 786.02 494.00 791.00
C 526.53 739.81 594.07 726.78 628.00 675.00
C 648.80 644.68 659.01 607.01 652.00 570.00
C 641.88 516.61 588.49 487.77 547.00 461.00
C 536.44 456.98 526.92 447.23 518.25 439.75 C 509.58 432.28 500.75 419.79 499.00 409.00
C 498.87 408.66 498.45 407.37 498.00 404.00 C 497.55 400.62 500.11 399.87 499.00 401.00
C 499.15 400.33 499.81 399.14 500.00 398.00
C 499.03 377.85 519.06 366.32 532.30 351.30 C 545.55 336.28 555.51 321.16 563.31 301.31 C 571.10 281.45 570.32 251.87 569.00 231.00
C 561.98 200.42 543.29 171.52 517.00 153.00
C 517.58 160.94 516.23 169.07 517.00 177.00 Z"/>
</g>
<g fill="None" fill-opacity="0.0" stroke="#0378EC" stroke-opacity="1.00" stroke-width="0.3"><path d="
M 516.00 182.00 
C 510.74 219.69 489.33 252.32 461.75 278.75 C 434.18 305.18 409.57 328.71 394.00 362.00
C 388.95 372.79 387.81 383.96 384.00 395.00
C 387.24 395.00 387.64 381.84 390.02 377.02 C 392.41 372.21 393.58 364.16 397.08 359.08 C 400.57 353.99 402.07 347.21 406.23 342.23 C 410.39 337.25 412.00 332.82 416.75 327.75 C 421.51 322.68 422.92 320.16 428.25 314.25 C 433.57 308.34 434.08 308.53 441.25 301.25 C 448.42 293.96 459.07 283.53 466.25 276.25 C 473.43 268.96 473.43 268.73 478.75 262.75 C 484.06 256.77 485.66 254.36 489.75 248.75 C 493.83 243.13 496.52 239.69 500.08 234.08 C 503.63 228.46 505.96 223.05 509.07 217.07 C 512.19 211.10 512.68 204.51 515.07 198.07 C 517.47 191.63 517.62 183.39 517.00 177.00
C 517.11 178.96 516.18 180.71 516.00 182.00 Z"/>
</g>
<g fill="None" fill-opacity="0.0" stroke="#14070C" stroke-opacity="1.00" stroke-width="0.3"><path d="
M 394.00 362.00 
C 409.57 328.71 434.18 305.18 461.75 278.75 C 489.33 252.32 510.74 219.69 516.00 182.00
C 514.01 188.87 511.53 203.89 507.93 211.93 C 504.32 219.96 498.60 232.84 493.24 239.23 C 487.87 245.62 485.26 254.18 476.00 259.00
C 473.48 268.84 462.01 275.04 455.75 282.75 C 449.49 290.46 438.68 298.82 431.92 306.92 C 425.16 315.02 416.17 323.98 409.77 332.77 C 403.37 341.56 396.28 352.68 394.00 362.00 Z"/>
</g>
<g fill="None" fill-opacity="0.0" stroke="#717171" stroke-opacity="1.00" stroke-width="0.3"><path d="
M 801.00 229.00 
C 797.09 224.42 792.63 219.96 788.00 216.00
C 792.20 220.20 796.75 224.75 801.00 229.00 Z"/>
</g>
<g fill="None" fill-opacity="0.0" stroke="#0379ED" stroke-opacity="1.00" stroke-width="0.3"><path d="
M 500.00 398.00 
C 501.50 388.79 506.23 381.30 512.00 374.00
C 518.08 366.29 526.15 359.85 533.00 353.00
C 553.31 329.23 566.32 304.70 571.00 274.00
C 573.16 259.84 571.89 244.70 569.00 231.00
C 570.32 251.87 571.10 281.45 563.31 301.31 C 555.51 321.16 545.55 336.28 532.30 351.30 C 519.06 366.32 499.03 377.85 500.00 398.00 Z"/>
</g>
<g fill="None" fill-opacity="0.0" stroke="#0067E6" stroke-opacity="1.00" stroke-width="0.3"><path d="
M 589.00 451.00 
C 586.34 431.74 597.73 416.66 604.07 400.07 C 610.42 383.49 609.95 359.76 600.00 346.00
C 597.34 365.23 583.84 379.07 576.98 396.98 C 570.11 414.88 573.41 438.05 589.00 451.00 Z"/>
</g>
<g fill="None" fill-opacity="0.0" stroke="#112248" stroke-opacity="1.00" stroke-width="0.3"><path d="
M 512.00 374.00 
C 518.60 366.86 526.60 360.49 533.00 353.00
C 526.15 359.85 518.08 366.29 512.00 374.00 Z"/>
</g>
<g fill="None" fill-opacity="0.0" stroke="#FEFEFE" stroke-opacity="1.00" stroke-width="0.3"><path d="
M 249.00 567.00 
C 249.00 571.67 249.00 576.33 249.00 581.00
C 248.51 624.82 264.64 671.16 287.08 706.92 C 309.51 742.69 331.97 766.01 367.25 789.75 C 402.54 813.48 444.56 828.50 488.00 833.00 C 531.44 837.50 587.15 827.75 624.77 808.77 C 662.39 789.79 688.62 770.09 716.08 737.08 C 743.54 704.07 759.39 669.05 770.02 627.02 C 780.66 585.00 776.58 528.04 756.77 489.23 C 736.96 450.42 709.27 414.08 719.00 368.00
C 706.11 373.71 695.41 381.47 686.77 393.77 C 678.13 406.07 673.43 419.41 671.00 435.00 C 668.57 450.59 670.78 472.03 674.67 487.33 C 678.57 502.63 682.43 516.57 687.22 531.78 C 692.01 546.99 695.00 565.55 695.00 582.00 C 695.00 598.45 692.45 616.76 686.92 630.92 C 681.39 645.09 675.01 656.05 666.92 667.92 C 658.83 679.79 650.44 689.21 640.25 699.25 C 630.06 709.29 621.20 717.76 610.08 726.08 C 598.96 734.40 587.62 742.27 576.08 750.08 C 564.53 757.88 551.90 762.72 541.08 772.08 C 530.26 781.44 519.25 785.61 510.75 798.75 C 502.26 811.89 485.09 800.64 473.03 794.97 C 460.96 789.30 448.77 781.34 438.08 772.92 C 427.39 764.50 416.43 756.56 407.30 745.70 C 398.18 734.83 390.27 724.73 384.31 711.69 C 378.34 698.66 373.15 680.98 374.00 667.00
C 390.03 690.12 412.32 709.76 431.00 731.00
C 432.21 705.81 441.99 675.83 439.00 651.00 C 436.01 626.17 425.14 608.18 410.25 589.75 C 395.36 571.33 381.56 561.59 364.75 545.25 C 347.94 528.90 335.61 512.76 330.78 489.22 C 325.95 465.68 324.91 432.88 332.00 409.00
C 278.23 441.37 249.00 505.95 249.00 567.00 Z"/>
</g>
<g fill="None" fill-opacity="0.0" stroke="#FFFFFF" stroke-opacity="0.00" stroke-width="0.3"><path d="
M 95.00 402.00 
C 95.81 398.96 97.17 396.03 98.00 393.00
C 96.98 394.54 94.81 393.60 93.78 396.78 C 92.75 399.96 94.80 400.02 95.00 402.00 Z"/>
</g>
<g fill="None" fill-opacity="0.0" stroke="#0180F6" stroke-opacity="1.00" stroke-width="0.3"><path d="
M 384.00 403.00 
C 384.00 407.67 384.00 412.33 384.00 417.00
C 384.00 422.91 384.77 428.45 386.00 434.00
C 385.40 424.55 387.99 406.39 384.00 397.00
C 384.00 399.00 384.00 401.00 384.00 403.00 Z"/>
</g>
<g fill="None" fill-opacity="0.0" stroke="#0085FF" stroke-opacity="1.00" stroke-width="0.3"><path d="
M 499.00 409.00 
C 498.65 406.87 498.54 403.11 499.00 401.00
C 500.11 399.87 497.55 400.62 498.00 404.00 C 498.45 407.37 498.87 408.66 499.00 409.00 Z"/>
</g>
<g fill="None" fill-opacity="0.0" stroke="#0E4796" stroke-opacity="1.00" stroke-width="0.3"><path d="
M 384.00 417.00 
C 384.00 412.33 384.00 407.67 384.00 403.00
C 383.58 407.34 383.57 412.60 384.00 417.00 Z"/>
</g>
<g fill="None" fill-opacity="0.0" stroke="#15060A" stroke-opacity="1.00" stroke-width="0.3"><path d="
M 496.00 728.00 
C 505.12 708.92 520.71 694.08 532.77 676.77 C 544.83 659.46 560.84 633.70 553.00 611.00
C 552.85 610.55 553.06 609.49 553.00 609.00
C 549.61 580.47 525.74 559.83 502.25 545.75 C 478.77 531.66 453.66 517.76 432.00 501.00
C 415.58 488.29 400.39 472.78 392.00 454.00
C 398.09 477.83 419.26 493.27 438.92 508.08 C 458.58 522.89 477.93 532.11 498.77 545.23 C 519.61 558.35 536.91 569.90 547.22 593.78 C 557.53 617.65 549.81 649.94 536.25 670.25 C 522.68 690.56 501.25 706.11 496.00 728.00 Z"/>
</g>
<g fill="None" fill-opacity="0.0" stroke="#14060B" stroke-opacity="1.00" stroke-width="0.3"><path d="
M 652.00 570.00 
C 650.95 545.82 631.60 517.94 610.75 503.25 C 589.91 488.56 568.62 469.24 547.00 461.00
C 588.49 487.77 641.88 516.61 652.00 570.00 Z"/>
</g>
<g fill="None" fill-opacity="0.0" stroke="#FFFFFF" stroke-opacity="1.00" stroke-width="0.3"><path d="
M 83.00 476.00 
C 82.81 477.96 83.00 480.03 83.00 482.00
C 86.67 478.13 84.19 473.35 84.00 469.00
C 83.83 471.27 83.16 474.34 83.00 476.00 Z"/>
</g>
<g fill="None" fill-opacity="0.0" stroke="#FFFFFF" stroke-opacity="0.00" stroke-width="0.3"><path d="
M 940.00 471.00 
C 941.92 491.47 941.42 512.27 941.00 533.00
C 942.38 527.08 941.82 527.87 943.01 520.01 C 944.20 512.15 944.26 500.31 943.78 492.22 C 943.30 484.14 942.26 486.74 943.00 480.00 C 943.74 473.26 940.57 472.93 940.00 471.00 Z"/>
</g>
<g fill="None" fill-opacity="0.0" stroke="#FFFFFF" stroke-opacity="0.00" stroke-width="0.3"><path d="
M 83.00 484.00 
C 82.97 483.50 83.00 482.50 83.00 482.00
C 83.00 480.03 82.81 477.96 83.00 476.00
C 80.49 475.17 81.96 483.04 81.00 486.00
C 81.67 485.72 82.76 484.53 83.00 484.00 Z"/>
</g>
<g fill="None" fill-opacity="0.0" stroke="#0477E8" stroke-opacity="1.00" stroke-width="0.3"><path d="
M 432.00 501.00 
C 453.66 517.76 478.77 531.66 502.25 545.75 C 525.74 559.83 549.61 580.47 553.00 609.00
C 557.34 599.49 545.67 585.07 540.75 576.25 C 535.83 567.43 524.37 560.06 516.25 553.75 C 508.13 547.44 497.30 541.28 488.08 535.92 C 478.86 530.56 468.37 523.37 459.23 517.77 C 450.09 512.17 440.40 505.14 432.00 501.00 Z"/>
</g>
<g fill="None" fill-opacity="0.0" stroke="#707070" stroke-opacity="1.00" stroke-width="0.3"><path d="
M 249.00 581.00 
C 249.00 576.33 249.00 571.67 249.00 567.00
C 248.58 571.34 248.57 576.60 249.00 581.00 Z"/>
</g>
<g fill="None" fill-opacity="0.0" stroke="#0377EB" stroke-opacity="1.00" stroke-width="0.3"><path d="
M 496.00 728.00 
C 489.40 741.80 486.63 757.05 488.00 773.00
C 488.52 762.93 490.15 748.72 493.07 739.07 C 496.00 729.43 500.87 722.10 506.08 714.08 C 511.29 706.06 516.92 699.00 522.75 691.75 C 528.58 684.50 534.47 677.78 539.25 670.25 C 544.02 662.72 550.44 652.35 552.02 644.02 C 553.61 635.70 559.75 616.41 553.00 611.00
C 560.84 633.70 544.83 659.46 532.77 676.77 C 520.71 694.08 505.12 708.92 496.00 728.00 Z"/>
</g>
<g fill="None" fill-opacity="0.0" stroke="#0577E8" stroke-opacity="1.00" stroke-width="0.3"><path d="
M 489.00 776.00 
C 488.69 782.54 491.51 788.27 494.00 794.00
C 497.56 787.94 501.20 781.62 506.00 776.00
C 522.71 756.45 546.71 745.16 567.23 731.23 C 587.75 717.30 608.41 701.94 624.00 682.00
C 625.61 679.94 626.50 677.18 628.00 675.00
C 594.07 726.78 526.53 739.81 494.00 791.00
C 492.51 786.02 488.87 775.87 489.00 776.00 Z"/>
</g>
<g fill="None" fill-opacity="0.0" stroke="#15060A" stroke-opacity="1.00" stroke-width="0.3"><path d="
M 506.00 776.00 
C 515.73 767.52 526.33 759.07 536.97 751.97 C 547.62 744.88 559.18 738.09 569.77 730.77 C 580.36 723.45 592.18 716.01 600.25 708.25 C 608.32 700.48 621.04 689.83 624.00 682.00
C 608.41 701.94 587.75 717.30 567.23 731.23 C 546.71 745.16 522.71 756.45 506.00 776.00 Z"/>
</g>
<g fill="None" fill-opacity="0.0" stroke="#FFFFFF" stroke-opacity="0.00" stroke-width="0.3"><path d="
M 751.00 864.00 
C 750.65 864.09 752.29 865.89 754.30 864.30 C 756.30 862.71 755.54 861.65 756.00 861.00
C 754.60 861.95 752.45 862.99 751.00 864.00 Z"/>
</g>
<g fill="#000000" fill-opacity="0.00" stroke="None">
<path d="
M 0.00 1024.00 
L 1024.00 1024.00
L 1024.00 0.00
L 0.00 0.00
L 0.00 1024.00
M 527.00 78.00 
C 541.66 78.00 555.78 79.10 570.00 81.00
C 579.95 82.33 590.13 83.99 600.00 86.00
C 602.63 86.53 605.33 87.41 608.00 88.00
C 695.51 107.39 769.89 152.18 832.25 220.75 C 894.61 289.32 931.40 379.32 940.00 471.00
C 940.57 472.93 943.74 473.26 943.00 480.00 C 942.26 486.74 943.30 484.14 943.78 492.22 C 944.26 500.31 944.20 512.15 943.01 520.01 C 941.82 527.87 942.38 527.08 941.00 533.00
C 938.44 660.92 862.71 788.56 756.00 861.00
C 755.54 861.65 756.30 862.71 754.30 864.30 C 752.29 865.89 750.65 864.09 751.00 864.00
C 735.28 874.89 721.10 882.23 703.97 890.97 C 686.84 899.72 670.30 907.06 651.32 913.32 C 632.35 919.59 613.74 925.06 592.98 928.98 C 572.21 932.90 547.40 935.34 525.00 936.00 C 502.60 936.66 474.92 935.19 453.78 932.22 C 432.63 929.25 412.10 925.01 392.78 919.22 C 373.45 913.44 355.24 907.42 337.77 899.23 C 320.30 891.03 304.03 883.59 288.30 873.70 C 272.58 863.80 259.15 854.32 244.77 843.23 C 230.39 832.14 218.25 820.72 205.25 807.75 C 192.25 794.79 181.84 782.70 170.75 768.25 C 159.65 753.80 149.68 739.90 140.23 723.77 C 130.78 707.64 123.02 691.62 115.23 673.77 C 107.44 655.92 102.55 638.04 96.67 618.33 C 90.80 598.62 88.83 576.45 85.00 555.00 C 81.17 533.55 84.38 506.09 83.00 484.00
C 82.76 484.53 81.67 485.72 81.00 486.00
C 81.96 483.04 80.49 475.17 83.00 476.00
C 83.16 474.34 83.83 471.27 84.00 469.00
C 85.72 446.47 89.23 423.59 95.00 402.00
C 94.80 400.02 92.75 399.96 93.78 396.78 C 94.81 393.60 96.98 394.54 98.00 393.00
C 144.50 223.90 296.11 92.96 472.00 79.00
C 484.50 78.01 497.50 77.25 510.00 77.00
C 515.73 76.89 522.03 77.52 527.00 78.00 Z"/>
</g>
<g fill="#F1F1F1" fill-opacity="0.66" stroke="None">
<path d="
M 472.00 79.00 
C 503.78 79.56 538.94 81.27 570.00 81.00
C 555.78 79.10 541.66 78.00 527.00 78.00
C 521.31 78.00 514.93 77.38 510.00 77.00
C 497.50 77.25 484.50 78.01 472.00 79.00 Z"/>
</g>
<g fill="#6B6B6B" fill-opacity="0.03" stroke="None">
<path d="
M 527.00 78.00 
C 522.03 77.52 515.73 76.89 510.00 77.00
C 514.93 77.38 521.31 78.00 527.00 78.00 Z"/>
</g>
<g fill="#FCFCFC" fill-opacity="0.99" stroke="None">
<path d="
M 98.00 393.00 
C 97.17 396.03 95.81 398.96 95.00 402.00
C 89.23 423.59 85.72 446.47 84.00 469.00
C 84.19 473.35 86.67 478.13 83.00 482.00
C 83.00 482.50 82.97 483.50 83.00 484.00
C 84.38 506.09 81.17 533.55 85.00 555.00 C 88.83 576.45 90.80 598.62 96.67 618.33 C 102.55 638.04 107.44 655.92 115.23 673.77 C 123.02 691.62 130.78 707.64 140.23 723.77 C 149.68 739.90 159.65 753.80 170.75 768.25 C 181.84 782.70 192.25 794.79 205.25 807.75 C 218.25 820.72 230.39 832.14 244.77 843.23 C 259.15 854.32 272.58 863.80 288.30 873.70 C 304.03 883.59 320.30 891.03 337.77 899.23 C 355.24 907.42 373.45 913.44 392.78 919.22 C 412.10 925.01 432.63 929.25 453.78 932.22 C 474.92 935.19 502.60 936.66 525.00 936.00 C 547.40 935.34 572.21 932.90 592.98 928.98 C 613.74 925.06 632.35 919.59 651.32 913.32 C 670.30 907.06 686.84 899.72 703.97 890.97 C 721.10 882.23 735.28 874.89 751.00 864.00
C 752.45 862.99 754.60 861.95 756.00 861.00
C 862.71 788.56 938.44 660.92 941.00 533.00
C 941.42 512.27 941.92 491.47 940.00 471.00
C 931.40 379.32 894.61 289.32 832.25 220.75 C 769.89 152.18 695.51 107.39 608.00 88.00
C 606.48 87.90 605.10 88.52 602.78 88.22 C 600.45 87.92 599.73 85.88 600.00 86.00
C 590.13 83.99 579.95 82.33 570.00 81.00
C 538.94 81.27 503.78 79.56 472.00 79.00
C 296.11 92.96 144.50 223.90 98.00 393.00
M 788.00 216.00 
C 792.63 219.96 797.09 224.42 801.00 229.00
C 826.40 258.73 846.40 281.40 864.77 316.23 C 883.14 351.06 896.89 388.17 904.99 428.01 C 913.09 467.85 915.86 526.29 909.00 567.00 C 902.14 607.71 890.74 647.61 873.08 683.08 C 855.41 718.54 837.98 743.90 812.25 773.25 C 786.51 802.60 762.50 822.01 730.30 843.30 C 698.11 864.59 665.18 878.93 626.98 890.98 C 588.77 903.02 534.78 909.84 492.78 907.22 C 450.78 904.61 404.91 896.12 367.93 881.07 C 330.94 866.03 301.17 849.95 270.30 826.70 C 239.44 803.45 218.54 781.91 194.25 751.75 C 169.95 721.60 154.41 691.79 139.02 654.98 C 123.64 618.16 114.56 573.07 112.00 531.00 C 109.44 488.93 114.93 434.22 126.78 395.78 C 138.63 357.34 152.80 324.30 173.75 291.75 C 194.71 259.21 214.08 235.26 243.25 209.25 C 272.41 183.23 297.27 165.24 332.70 147.69 C 368.12 130.15 407.52 118.00 448.07 111.07 C 488.63 104.14 546.88 105.16 587.00 113.00 C 627.12 120.84 664.49 134.37 699.70 152.31 C 734.90 170.24 758.19 190.53 788.00 216.00 Z"/>
</g>
<g fill="#E5E5E4" fill-opacity="0.81" stroke="None">
<path d="
M 608.00 88.00 
C 605.33 87.41 602.63 86.53 600.00 86.00
C 599.73 85.88 600.45 87.92 602.78 88.22 C 605.10 88.52 606.48 87.90 608.00 88.00 Z"/>
</g>
<g fill="#0E0E0E" fill-opacity="1.00" stroke="None">
<path d="
M 801.00 229.00 
C 796.75 224.75 792.20 220.20 788.00 216.00
C 758.19 190.53 734.90 170.24 699.70 152.31 C 664.49 134.37 627.12 120.84 587.00 113.00 C 546.88 105.16 488.63 104.14 448.07 111.07 C 407.52 118.00 368.12 130.15 332.70 147.69 C 297.27 165.24 272.41 183.23 243.25 209.25 C 214.08 235.26 194.71 259.21 173.75 291.75 C 152.80 324.30 138.63 357.34 126.78 395.78 C 114.93 434.22 109.44 488.93 112.00 531.00 C 114.56 573.07 123.64 618.16 139.02 654.98 C 154.41 691.79 169.95 721.60 194.25 751.75 C 218.54 781.91 239.44 803.45 270.30 826.70 C 301.17 849.95 330.94 866.03 367.93 881.07 C 404.91 896.12 450.78 904.61 492.78 907.22 C 534.78 909.84 588.77 903.02 626.98 890.98 C 665.18 878.93 698.11 864.59 730.30 843.30 C 762.50 822.01 786.51 802.60 812.25 773.25 C 837.98 743.90 855.41 718.54 873.08 683.08 C 890.74 647.61 902.14 607.71 909.00 567.00 C 915.86 526.29 913.09 467.85 904.99 428.01 C 896.89 388.17 883.14 351.06 864.77 316.23 C 846.40 281.40 826.40 258.73 801.00 229.00
M 571.00 274.00 
C 566.32 304.70 553.31 329.23 533.00 353.00
C 526.60 360.49 518.60 366.86 512.00 374.00
C 506.23 381.30 501.50 388.79 500.00 398.00
C 499.81 399.14 499.15 400.33 499.00 401.00
C 498.54 403.11 498.65 406.87 499.00 409.00
C 500.75 419.79 509.58 432.28 518.25 439.75 C 526.92 447.23 536.44 456.98 547.00 461.00
C 568.62 469.24 589.91 488.56 610.75 503.25 C 631.60 517.94 650.95 545.82 652.00 570.00
C 659.01 607.01 648.80 644.68 628.00 675.00
C 626.50 677.18 625.61 679.94 624.00 682.00
C 621.04 689.83 608.32 700.48 600.25 708.25 C 592.18 716.01 580.36 723.45 569.77 730.77 C 559.18 738.09 547.62 744.88 536.97 751.97 C 526.33 759.07 515.73 767.52 506.00 776.00
C 501.20 781.62 497.56 787.94 494.00 794.00
C 491.51 788.27 488.69 782.54 489.00 776.00
C 488.83 775.26 488.11 774.26 488.00 773.00
C 486.63 757.05 489.40 741.80 496.00 728.00
C 501.25 706.11 522.68 690.56 536.25 670.25 C 549.81 649.94 557.53 617.65 547.22 593.78 C 536.91 569.90 519.61 558.35 498.77 545.23 C 477.93 532.11 458.58 522.89 438.92 508.08 C 419.26 493.27 398.09 477.83 392.00 454.00
C 390.28 447.28 387.52 440.86 386.00 434.00
C 384.77 428.45 384.00 422.91 384.00 417.00
C 383.57 412.60 383.58 407.34 384.00 403.00
C 384.00 401.00 384.00 399.00 384.00 397.00
C 384.00 396.50 383.85 395.45 384.00 395.00
C 387.81 383.96 388.95 372.79 394.00 362.00
C 396.28 352.68 403.37 341.56 409.77 332.77 C 416.17 323.98 425.16 315.02 431.92 306.92 C 438.68 298.82 449.49 290.46 455.75 282.75 C 462.01 275.04 473.48 268.84 476.00 259.00
C 485.26 254.18 487.87 245.62 493.24 239.23 C 498.60 232.84 504.32 219.96 507.93 211.93 C 511.53 203.89 514.01 188.87 516.00 182.00
C 516.18 180.71 517.11 178.96 517.00 177.00
C 516.69 171.52 513.25 148.22 521.75 154.25 C 530.24 160.29 533.05 165.27 539.25 171.75 C 545.46 178.22 548.92 183.50 553.92 191.08 C 558.92 198.66 561.89 206.09 565.32 214.68 C 568.76 223.26 570.70 232.12 572.00 242.00 C 573.30 251.88 573.52 264.71 571.00 274.00
M 589.00 451.00 
C 573.41 438.05 570.11 414.88 576.98 396.98 C 583.84 379.07 597.34 365.23 600.00 346.00
C 609.95 359.76 610.42 383.49 604.07 400.07 C 597.73 416.66 586.34 431.74 589.00 451.00
M 249.00 581.00 
C 248.57 576.60 248.58 571.34 249.00 567.00
C 249.00 505.95 278.23 441.37 332.00 409.00
C 324.91 432.88 325.95 465.68 330.78 489.22 C 335.61 512.76 347.94 528.90 364.75 545.25 C 381.56 561.59 395.36 571.33 410.25 589.75 C 425.14 608.18 436.01 626.17 439.00 651.00 C 441.99 675.83 432.21 705.81 431.00 731.00
C 412.32 709.76 390.03 690.12 374.00 667.00
C 373.15 680.98 378.34 698.66 384.31 711.69 C 390.27 724.73 398.18 734.83 407.30 745.70 C 416.43 756.56 427.39 764.50 438.08 772.92 C 448.77 781.34 460.96 789.30 473.03 794.97 C 485.09 800.64 502.26 811.89 510.75 798.75 C 519.25 785.61 530.26 781.44 541.08 772.08 C 551.90 762.72 564.53 757.88 576.08 750.08 C 587.62 742.27 598.96 734.40 610.08 726.08 C 621.20 717.76 630.06 709.29 640.25 699.25 C 650.44 689.21 658.83 679.79 666.92 667.92 C 675.01 656.05 681.39 645.09 686.92 630.92 C 692.45 616.76 695.00 598.45 695.00 582.00 C 695.00 565.55 692.01 546.99 687.22 531.78 C 682.43 516.57 678.57 502.63 674.67 487.33 C 670.78 472.03 668.57 450.59 671.00 435.00 C 673.43 419.41 678.13 406.07 686.77 393.77 C 695.41 381.47 706.11 373.71 719.00 368.00
C 709.27 414.08 736.96 450.42 756.77 489.23 C 776.58 528.04 780.66 585.00 770.02 627.02 C 759.39 669.05 743.54 704.07 716.08 737.08 C 688.62 770.09 662.39 789.79 624.77 808.77 C 587.15 827.75 531.44 837.50 488.00 833.00 C 444.56 828.50 402.54 813.48 367.25 789.75 C 331.97 766.01 309.51 742.69 287.08 706.92 C 264.64 671.16 248.51 624.82 249.00 581.00 Z"/>
</g>
<g fill="#140508" fill-opacity="1.00" stroke="None">
<path d="
M 517.00 177.00 
C 516.23 169.07 517.58 160.94 517.00 153.00
C 543.29 171.52 561.98 200.42 569.00 231.00
C 571.89 244.70 573.16 259.84 571.00 274.00
C 573.52 264.71 573.30 251.88 572.00 242.00 C 570.70 232.12 568.76 223.26 565.32 214.68 C 561.89 206.09 558.92 198.66 553.92 191.08 C 548.92 183.50 545.46 178.22 539.25 171.75 C 533.05 165.27 530.24 160.29 521.75 154.25 C 513.25 148.22 516.69 171.52 517.00 177.00 Z"/>
</g>
<g fill="#0064E7" fill-opacity="1.00" stroke="None">
<path d="
M 517.00 177.00 
C 517.62 183.39 517.47 191.63 515.07 198.07 C 512.68 204.51 512.19 211.10 509.07 217.07 C 505.96 223.05 503.63 228.46 500.08 234.08 C 496.52 239.69 493.83 243.13 489.75 248.75 C 485.66 254.36 484.06 256.77 478.75 262.75 C 473.43 268.73 473.43 268.96 466.25 276.25 C 459.07 283.53 448.42 293.96 441.25 301.25 C 434.08 308.53 433.57 308.34 428.25 314.25 C 422.92 320.16 421.51 322.68 416.75 327.75 C 412.00 332.82 410.39 337.25 406.23 342.23 C 402.07 347.21 400.57 353.99 397.08 359.08 C 393.58 364.16 392.41 372.21 390.02 377.02 C 387.64 381.84 387.24 395.00 384.00 395.00
C 383.85 395.45 384.00 396.50 384.00 397.00
C 387.99 406.39 385.40 424.55 386.00 434.00
C 387.52 440.86 390.28 447.28 392.00 454.00
C 400.39 472.78 415.58 488.29 432.00 501.00
C 440.40 505.14 450.09 512.17 459.23 517.77 C 468.37 523.37 478.86 530.56 488.08 535.92 C 497.30 541.28 508.13 547.44 516.25 553.75 C 524.37 560.06 535.83 567.43 540.75 576.25 C 545.67 585.07 557.34 599.49 553.00 609.00
C 553.06 609.49 552.85 610.55 553.00 611.00
C 559.75 616.41 553.61 635.70 552.02 644.02 C 550.44 652.35 544.02 662.72 539.25 670.25 C 534.47 677.78 528.58 684.50 522.75 691.75 C 516.92 699.00 511.29 706.06 506.08 714.08 C 500.87 722.10 496.00 729.43 493.07 739.07 C 490.15 748.72 488.52 762.93 488.00 773.00
C 488.11 774.26 488.83 775.26 489.00 776.00
C 488.87 775.87 492.51 786.02 494.00 791.00
C 526.53 739.81 594.07 726.78 628.00 675.00
C 648.80 644.68 659.01 607.01 652.00 570.00
C 641.88 516.61 588.49 487.77 547.00 461.00
C 536.44 456.98 526.92 447.23 518.25 439.75 C 509.58 432.28 500.75 419.79 499.00 409.00
C 498.87 408.66 498.45 407.37 498.00 404.00 C 497.55 400.62 500.11 399.87 499.00 401.00
C 499.15 400.33 499.81 399.14 500.00 398.00
C 499.03 377.85 519.06 366.32 532.30 351.30 C 545.55 336.28 555.51 321.16 563.31 301.31 C 571.10 281.45 570.32 251.87 569.00 231.00
C 561.98 200.42 543.29 171.52 517.00 153.00
C 517.58 160.94 516.23 169.07 517.00 177.00 Z"/>
</g>
<g fill="#0378EC" fill-opacity="1.00" stroke="None">
<path d="
M 516.00 182.00 
C 510.74 219.69 489.33 252.32 461.75 278.75 C 434.18 305.18 409.57 328.71 394.00 362.00
C 388.95 372.79 387.81 383.96 384.00 395.00
C 387.24 395.00 387.64 381.84 390.02 377.02 C 392.41 372.21 393.58 364.16 397.08 359.08 C 400.57 353.99 402.07 347.21 406.23 342.23 C 410.39 337.25 412.00 332.82 416.75 327.75 C 421.51 322.68 422.92 320.16 428.25 314.25 C 433.57 308.34 434.08 308.53 441.25 301.25 C 448.42 293.96 459.07 283.53 466.25 276.25 C 473.43 268.96 473.43 268.73 478.75 262.75 C 484.06 256.77 485.66 254.36 489.75 248.75 C 493.83 243.13 496.52 239.69 500.08 234.08 C 503.63 228.46 505.96 223.05 509.07 217.07 C 512.19 211.10 512.68 204.51 515.07 198.07 C 517.47 191.63 517.62 183.39 517.00 177.00
C 517.11 178.96 516.18 180.71 516.00 182.00 Z"/>
</g>
<g fill="#14070C" fill-opacity="1.00" stroke="None">
<path d="
M 394.00 362.00 
C 409.57 328.71 434.18 305.18 461.75 278.75 C 489.33 252.32 510.74 219.69 516.00 182.00
C 514.01 188.87 511.53 203.89 507.93 211.93 C 504.32 219.96 498.60 232.84 493.24 239.23 C 487.87 245.62 485.26 254.18 476.00 259.00
C 473.48 268.84 462.01 275.04 455.75 282.75 C 449.49 290.46 438.68 298.82 431.92 306.92 C 425.16 315.02 416.17 323.98 409.77 332.77 C 403.37 341.56 396.28 352.68 394.00 362.00 Z"/>
</g>
<g fill="#717171" fill-opacity="1.00" stroke="None">
<path d="
M 801.00 229.00 
C 797.09 224.42 792.63 219.96 788.00 216.00
C 792.20 220.20 796.75 224.75 801.00 229.00 Z"/>
</g>
<g fill="#0379ED" fill-opacity="1.00" stroke="None">
<path d="
M 500.00 398.00 
C 501.50 388.79 506.23 381.30 512.00 374.00
C 518.08 366.29 526.15 359.85 533.00 353.00
C 553.31 329.23 566.32 304.70 571.00 274.00
C 573.16 259.84 571.89 244.70 569.00 231.00
C 570.32 251.87 571.10 281.45 563.31 301.31 C 555.51 321.16 545.55 336.28 532.30 351.30 C 519.06 366.32 499.03 377.85 500.00 398.00 Z"/>
</g>
<g fill="#0067E6" fill-opacity="1.00" stroke="None">
<path d="
M 589.00 451.00 
C 586.34 431.74 597.73 416.66 604.07 400.07 C 610.42 383.49 609.95 359.76 600.00 346.00
C 597.34 365.23 583.84 379.07 576.98 396.98 C 570.11 414.88 573.41 438.05 589.00 451.00 Z"/>
</g>
<g fill="#112248" fill-opacity="1.00" stroke="None">
<path d="
M 512.00 374.00 
C 518.60 366.86 526.60 360.49 533.00 353.00
C 526.15 359.85 518.08 366.29 512.00 374.00 Z"/>
</g>
<g fill="#FEFEFE" fill-opacity="1.00" stroke="None">
<path d="
M 249.00 567.00 
C 249.00 571.67 249.00 576.33 249.00 581.00
C 248.51 624.82 264.64 671.16 287.08 706.92 C 309.51 742.69 331.97 766.01 367.25 789.75 C 402.54 813.48 444.56 828.50 488.00 833.00 C 531.44 837.50 587.15 827.75 624.77 808.77 C 662.39 789.79 688.62 770.09 716.08 737.08 C 743.54 704.07 759.39 669.05 770.02 627.02 C 780.66 585.00 776.58 528.04 756.77 489.23 C 736.96 450.42 709.27 414.08 719.00 368.00
C 706.11 373.71 695.41 381.47 686.77 393.77 C 678.13 406.07 673.43 419.41 671.00 435.00 C 668.57 450.59 670.78 472.03 674.67 487.33 C 678.57 502.63 682.43 516.57 687.22 531.78 C 692.01 546.99 695.00 565.55 695.00 582.00 C 695.00 598.45 692.45 616.76 686.92 630.92 C 681.39 645.09 675.01 656.05 666.92 667.92 C 658.83 679.79 650.44 689.21 640.25 699.25 C 630.06 709.29 621.20 717.76 610.08 726.08 C 598.96 734.40 587.62 742.27 576.08 750.08 C 564.53 757.88 551.90 762.72 541.08 772.08 C 530.26 781.44 519.25 785.61 510.75 798.75 C 502.26 811.89 485.09 800.64 473.03 794.97 C 460.96 789.30 448.77 781.34 438.08 772.92 C 427.39 764.50 416.43 756.56 407.30 745.70 C 398.18 734.83 390.27 724.73 384.31 711.69 C 378.34 698.66 373.15 680.98 374.00 667.00
C 390.03 690.12 412.32 709.76 431.00 731.00
C 432.21 705.81 441.99 675.83 439.00 651.00 C 436.01 626.17 425.14 608.18 410.25 589.75 C 395.36 571.33 381.56 561.59 364.75 545.25 C 347.94 528.90 335.61 512.76 330.78 489.22 C 325.95 465.68 324.91 432.88 332.00 409.00
C 278.23 441.37 249.00 505.95 249.00 567.00 Z"/>
</g>
<g fill="#FFFFFF" fill-opacity="0.00" stroke="None">
<path d="
M 95.00 402.00 
C 95.81 398.96 97.17 396.03 98.00 393.00
C 96.98 394.54 94.81 393.60 93.78 396.78 C 92.75 399.96 94.80 400.02 95.00 402.00 Z"/>
</g>
<g fill="#0180F6" fill-opacity="1.00" stroke="None">
<path d="
M 384.00 403.00 
C 384.00 407.67 384.00 412.33 384.00 417.00
C 384.00 422.91 384.77 428.45 386.00 434.00
C 385.40 424.55 387.99 406.39 384.00 397.00
C 384.00 399.00 384.00 401.00 384.00 403.00 Z"/>
</g>
<g fill="#0085FF" fill-opacity="1.00" stroke="None">
<path d="
M 499.00 409.00 
C 498.65 406.87 498.54 403.11 499.00 401.00
C 500.11 399.87 497.55 400.62 498.00 404.00 C 498.45 407.37 498.87 408.66 499.00 409.00 Z"/>
</g>
<g fill="#0E4796" fill-opacity="1.00" stroke="None">
<path d="
M 384.00 417.00 
C 384.00 412.33 384.00 407.67 384.00 403.00
C 383.58 407.34 383.57 412.60 384.00 417.00 Z"/>
</g>
<g fill="#15060A" fill-opacity="1.00" stroke="None">
<path d="
M 496.00 728.00 
C 505.12 708.92 520.71 694.08 532.77 676.77 C 544.83 659.46 560.84 633.70 553.00 611.00
C 552.85 610.55 553.06 609.49 553.00 609.00
C 549.61 580.47 525.74 559.83 502.25 545.75 C 478.77 531.66 453.66 517.76 432.00 501.00
C 415.58 488.29 400.39 472.78 392.00 454.00
C 398.09 477.83 419.26 493.27 438.92 508.08 C 458.58 522.89 477.93 532.11 498.77 545.23 C 519.61 558.35 536.91 569.90 547.22 593.78 C 557.53 617.65 549.81 649.94 536.25 670.25 C 522.68 690.56 501.25 706.11 496.00 728.00 Z"/>
</g>
<g fill="#14060B" fill-opacity="1.00" stroke="None">
<path d="
M 652.00 570.00 
C 650.95 545.82 631.60 517.94 610.75 503.25 C 589.91 488.56 568.62 469.24 547.00 461.00
C 588.49 487.77 641.88 516.61 652.00 570.00 Z"/>
</g>
<g fill="#FFFFFF" fill-opacity="1.00" stroke="None">
<path d="
M 83.00 476.00 
C 82.81 477.96 83.00 480.03 83.00 482.00
C 86.67 478.13 84.19 473.35 84.00 469.00
C 83.83 471.27 83.16 474.34 83.00 476.00 Z"/>
</g>
<g fill="#FFFFFF" fill-opacity="0.00" stroke="None">
<path d="
M 940.00 471.00 
C 941.92 491.47 941.42 512.27 941.00 533.00
C 942.38 527.08 941.82 527.87 943.01 520.01 C 944.20 512.15 944.26 500.31 943.78 492.22 C 943.30 484.14 942.26 486.74 943.00 480.00 C 943.74 473.26 940.57 472.93 940.00 471.00 Z"/>
</g>
<g fill="#FFFFFF" fill-opacity="0.00" stroke="None">
<path d="
M 83.00 484.00 
C 82.97 483.50 83.00 482.50 83.00 482.00
C 83.00 480.03 82.81 477.96 83.00 476.00
C 80.49 475.17 81.96 483.04 81.00 486.00
C 81.67 485.72 82.76 484.53 83.00 484.00 Z"/>
</g>
<g fill="#0477E8" fill-opacity="1.00" stroke="None">
<path d="
M 432.00 501.00 
C 453.66 517.76 478.77 531.66 502.25 545.75 C 525.74 559.83 549.61 580.47 553.00 609.00
C 557.34 599.49 545.67 585.07 540.75 576.25 C 535.83 567.43 524.37 560.06 516.25 553.75 C 508.13 547.44 497.30 541.28 488.08 535.92 C 478.86 530.56 468.37 523.37 459.23 517.77 C 450.09 512.17 440.40 505.14 432.00 501.00 Z"/>
</g>
<g fill="#707070" fill-opacity="1.00" stroke="None">
<path d="
M 249.00 581.00 
C 249.00 576.33 249.00 571.67 249.00 567.00
C 248.58 571.34 248.57 576.60 249.00 581.00 Z"/>
</g>
<g fill="#0377EB" fill-opacity="1.00" stroke="None">
<path d="
M 496.00 728.00 
C 489.40 741.80 486.63 757.05 488.00 773.00
C 488.52 762.93 490.15 748.72 493.07 739.07 C 496.00 729.43 500.87 722.10 506.08 714.08 C 511.29 706.06 516.92 699.00 522.75 691.75 C 528.58 684.50 534.47 677.78 539.25 670.25 C 544.02 662.72 550.44 652.35 552.02 644.02 C 553.61 635.70 559.75 616.41 553.00 611.00
C 560.84 633.70 544.83 659.46 532.77 676.77 C 520.71 694.08 505.12 708.92 496.00 728.00 Z"/>
</g>
<g fill="#0577E8" fill-opacity="1.00" stroke="None">
<path d="
M 489.00 776.00 
C 488.69 782.54 491.51 788.27 494.00 794.00
C 497.56 787.94 501.20 781.62 506.00 776.00
C 522.71 756.45 546.71 745.16 567.23 731.23 C 587.75 717.30 608.41 701.94 624.00 682.00
C 625.61 679.94 626.50 677.18 628.00 675.00
C 594.07 726.78 526.53 739.81 494.00 791.00
C 492.51 786.02 488.87 775.87 489.00 776.00 Z"/>
</g>
<g fill="#15060A" fill-opacity="1.00" stroke="None">
<path d="
M 506.00 776.00 
C 515.73 767.52 526.33 759.07 536.97 751.97 C 547.62 744.88 559.18 738.09 569.77 730.77 C 580.36 723.45 592.18 716.01 600.25 708.25 C 608.32 700.48 621.04 689.83 624.00 682.00
C 608.41 701.94 587.75 717.30 567.23 731.23 C 546.71 745.16 522.71 756.45 506.00 776.00 Z"/>
</g>
<g fill="#FFFFFF" fill-opacity="0.00" stroke="None">
<path d="
M 751.00 864.00 
C 750.65 864.09 752.29 865.89 754.30 864.30 C 756.30 862.71 755.54 861.65 756.00 861.00
C 754.60 861.95 752.45 862.99 751.00 864.00 Z"/>
</g>
</svg>